<?xml version="1.0" encoding="UTF-8"?>
<svg xmlns="http://www.w3.org/2000/svg" xmlns:xlink="http://www.w3.org/1999/xlink" width="600" height="600" viewBox="0 0 600 600">
<rect x="-60" y="-60" width="720" height="720" fill="rgb(81.652471%, 74.61989%, 76.189118%)" fill-opacity="1"/>
<path fill="none" stroke-width="55.920626" stroke-linecap="butt" stroke-linejoin="miter" stroke="rgb(0%, 0%, 0%)" stroke-opacity="1" stroke-miterlimit="10" d="M 300 67.960938 L 352.519531 237.410156 L 371.828125 287.335938 L 378.300781 345.207031 L 323.808594 365.414062 L 274.128906 371.082031 L 102.628906 413.953125 L 75.160156 260.355469 L 152.722656 124.484375 Z M 300 67.960938 "/>
<path fill-rule="nonzero" fill="rgb(44.043898%, 52.274883%, 75.160075%)" fill-opacity="1" d="M 300 67.960938 L 352.519531 237.410156 L 371.828125 287.335938 L 378.300781 345.207031 L 323.808594 365.414062 L 274.128906 371.082031 L 102.628906 413.953125 L 75.160156 260.355469 L 152.722656 124.484375 Z M 300 67.960938 "/>
<path fill="none" stroke-width="3" stroke-linecap="butt" stroke-linejoin="miter" stroke="rgb(70%, 70%, 70%)" stroke-opacity="1" stroke-miterlimit="10" d="M 300 300 L 300 67.960938 "/>
<path fill="none" stroke-width="3" stroke-linecap="butt" stroke-linejoin="miter" stroke="rgb(70%, 70%, 70%)" stroke-opacity="1" stroke-miterlimit="10" d="M 300 300 L 352.519531 237.410156 "/>
<path fill="none" stroke-width="3" stroke-linecap="butt" stroke-linejoin="miter" stroke="rgb(70%, 70%, 70%)" stroke-opacity="1" stroke-miterlimit="10" d="M 300 300 L 371.828125 287.335938 "/>
<path fill="none" stroke-width="3" stroke-linecap="butt" stroke-linejoin="miter" stroke="rgb(70%, 70%, 70%)" stroke-opacity="1" stroke-miterlimit="10" d="M 300 300 L 378.300781 345.207031 "/>
<path fill="none" stroke-width="3" stroke-linecap="butt" stroke-linejoin="miter" stroke="rgb(70%, 70%, 70%)" stroke-opacity="1" stroke-miterlimit="10" d="M 300 300 L 323.808594 365.414062 "/>
<path fill="none" stroke-width="3" stroke-linecap="butt" stroke-linejoin="miter" stroke="rgb(70%, 70%, 70%)" stroke-opacity="1" stroke-miterlimit="10" d="M 300 300 L 274.128906 371.082031 "/>
<path fill="none" stroke-width="3" stroke-linecap="butt" stroke-linejoin="miter" stroke="rgb(70%, 70%, 70%)" stroke-opacity="1" stroke-miterlimit="10" d="M 300 300 L 102.628906 413.953125 "/>
<path fill="none" stroke-width="3" stroke-linecap="butt" stroke-linejoin="miter" stroke="rgb(70%, 70%, 70%)" stroke-opacity="1" stroke-miterlimit="10" d="M 300 300 L 75.160156 260.355469 "/>
<path fill="none" stroke-width="3" stroke-linecap="butt" stroke-linejoin="miter" stroke="rgb(70%, 70%, 70%)" stroke-opacity="1" stroke-miterlimit="10" d="M 300 300 L 152.722656 124.484375 "/>
</svg>
