<?xml version="1.0" encoding="UTF-8"?>
<svg xmlns="http://www.w3.org/2000/svg" xmlns:xlink="http://www.w3.org/1999/xlink" width="600" height="600" viewBox="0 0 600 600">
<rect x="-60" y="-60" width="720" height="720" fill="rgb(47.368588%, 78.355495%, 83%)" fill-opacity="1"/>
<path fill="none" stroke-width="58.796315" stroke-linecap="butt" stroke-linejoin="miter" stroke="rgb(0%, 0%, 0%)" stroke-opacity="1" stroke-miterlimit="10" d="M 300 69.398438 L 344.46875 247.003906 L 368.15625 287.980469 L 363.320312 336.558594 L 323.6875 365.074219 L 269.871094 382.785156 L 113.367188 407.753906 L 72.902344 259.957031 L 151.777344 123.355469 Z M 300 69.398438 "/>
<path fill-rule="nonzero" fill="rgb(64.555938%, 39.704736%, 72.747362%)" fill-opacity="1" d="M 300 69.398438 L 344.46875 247.003906 L 368.15625 287.980469 L 363.320312 336.558594 L 323.6875 365.074219 L 269.871094 382.785156 L 113.367188 407.753906 L 72.902344 259.957031 L 151.777344 123.355469 Z M 300 69.398438 "/>
<path fill="none" stroke-width="3" stroke-linecap="butt" stroke-linejoin="miter" stroke="rgb(70%, 70%, 70%)" stroke-opacity="1" stroke-miterlimit="10" d="M 300 300 L 300 69.398438 "/>
<path fill="none" stroke-width="3" stroke-linecap="butt" stroke-linejoin="miter" stroke="rgb(70%, 70%, 70%)" stroke-opacity="1" stroke-miterlimit="10" d="M 300 300 L 344.46875 247.003906 "/>
<path fill="none" stroke-width="3" stroke-linecap="butt" stroke-linejoin="miter" stroke="rgb(70%, 70%, 70%)" stroke-opacity="1" stroke-miterlimit="10" d="M 300 300 L 368.15625 287.980469 "/>
<path fill="none" stroke-width="3" stroke-linecap="butt" stroke-linejoin="miter" stroke="rgb(70%, 70%, 70%)" stroke-opacity="1" stroke-miterlimit="10" d="M 300 300 L 363.320312 336.558594 "/>
<path fill="none" stroke-width="3" stroke-linecap="butt" stroke-linejoin="miter" stroke="rgb(70%, 70%, 70%)" stroke-opacity="1" stroke-miterlimit="10" d="M 300 300 L 323.6875 365.074219 "/>
<path fill="none" stroke-width="3" stroke-linecap="butt" stroke-linejoin="miter" stroke="rgb(70%, 70%, 70%)" stroke-opacity="1" stroke-miterlimit="10" d="M 300 300 L 269.871094 382.785156 "/>
<path fill="none" stroke-width="3" stroke-linecap="butt" stroke-linejoin="miter" stroke="rgb(70%, 70%, 70%)" stroke-opacity="1" stroke-miterlimit="10" d="M 300 300 L 113.367188 407.753906 "/>
<path fill="none" stroke-width="3" stroke-linecap="butt" stroke-linejoin="miter" stroke="rgb(70%, 70%, 70%)" stroke-opacity="1" stroke-miterlimit="10" d="M 300 300 L 72.902344 259.957031 "/>
<path fill="none" stroke-width="3" stroke-linecap="butt" stroke-linejoin="miter" stroke="rgb(70%, 70%, 70%)" stroke-opacity="1" stroke-miterlimit="10" d="M 300 300 L 151.777344 123.355469 "/>
</svg>
