<?xml version="1.0" encoding="UTF-8"?>
<svg xmlns="http://www.w3.org/2000/svg" xmlns:xlink="http://www.w3.org/1999/xlink" width="600" height="600" viewBox="0 0 600 600">
<rect x="-60" y="-60" width="720" height="720" fill="rgb(81.711059%, 71.628156%, 73.464765%)" fill-opacity="1"/>
<path fill="none" stroke-width="43.962629" stroke-linecap="butt" stroke-linejoin="miter" stroke="rgb(0%, 0%, 0%)" stroke-opacity="1" stroke-miterlimit="10" d="M 300 62.003906 L 345.898438 245.300781 L 370.40625 287.585938 L 394.765625 354.714844 L 325.300781 369.507812 L 223.582031 509.957031 L 128.492188 399.019531 L 65.597656 258.667969 L 147.003906 117.667969 Z M 300 62.003906 "/>
<path fill-rule="nonzero" fill="rgb(73.525106%, 41.082282%, 72.362734%)" fill-opacity="1" d="M 300 62.003906 L 345.898438 245.300781 L 370.40625 287.585938 L 394.765625 354.714844 L 325.300781 369.507812 L 223.582031 509.957031 L 128.492188 399.019531 L 65.597656 258.667969 L 147.003906 117.667969 Z M 300 62.003906 "/>
<path fill="none" stroke-width="3" stroke-linecap="butt" stroke-linejoin="miter" stroke="rgb(70%, 70%, 70%)" stroke-opacity="1" stroke-miterlimit="10" d="M 300 300 L 300 62.003906 "/>
<path fill="none" stroke-width="3" stroke-linecap="butt" stroke-linejoin="miter" stroke="rgb(70%, 70%, 70%)" stroke-opacity="1" stroke-miterlimit="10" d="M 300 300 L 345.898438 245.300781 "/>
<path fill="none" stroke-width="3" stroke-linecap="butt" stroke-linejoin="miter" stroke="rgb(70%, 70%, 70%)" stroke-opacity="1" stroke-miterlimit="10" d="M 300 300 L 370.40625 287.585938 "/>
<path fill="none" stroke-width="3" stroke-linecap="butt" stroke-linejoin="miter" stroke="rgb(70%, 70%, 70%)" stroke-opacity="1" stroke-miterlimit="10" d="M 300 300 L 394.765625 354.714844 "/>
<path fill="none" stroke-width="3" stroke-linecap="butt" stroke-linejoin="miter" stroke="rgb(70%, 70%, 70%)" stroke-opacity="1" stroke-miterlimit="10" d="M 300 300 L 325.300781 369.507812 "/>
<path fill="none" stroke-width="3" stroke-linecap="butt" stroke-linejoin="miter" stroke="rgb(70%, 70%, 70%)" stroke-opacity="1" stroke-miterlimit="10" d="M 300 300 L 223.582031 509.957031 "/>
<path fill="none" stroke-width="3" stroke-linecap="butt" stroke-linejoin="miter" stroke="rgb(70%, 70%, 70%)" stroke-opacity="1" stroke-miterlimit="10" d="M 300 300 L 128.492188 399.019531 "/>
<path fill="none" stroke-width="3" stroke-linecap="butt" stroke-linejoin="miter" stroke="rgb(70%, 70%, 70%)" stroke-opacity="1" stroke-miterlimit="10" d="M 300 300 L 65.597656 258.667969 "/>
<path fill="none" stroke-width="3" stroke-linecap="butt" stroke-linejoin="miter" stroke="rgb(70%, 70%, 70%)" stroke-opacity="1" stroke-miterlimit="10" d="M 300 300 L 147.003906 117.667969 "/>
</svg>
