<?xml version="1.0" encoding="UTF-8"?>
<svg xmlns="http://www.w3.org/2000/svg" xmlns:xlink="http://www.w3.org/1999/xlink" width="600" height="600" viewBox="0 0 600 600">
<rect x="-60" y="-60" width="720" height="720" fill="rgb(81.746212%, 69.833115%, 71.830153%)" fill-opacity="1"/>
<path fill="none" stroke-width="52.19405" stroke-linecap="butt" stroke-linejoin="miter" stroke="rgb(0%, 0%, 0%)" stroke-opacity="1" stroke-miterlimit="10" d="M 300 66.109375 L 345.105469 246.246094 L 370.746094 287.523438 L 415.992188 366.96875 L 327.597656 375.828125 L 259.640625 410.886719 L 106.535156 411.695312 L 69.652344 259.382812 L 149.648438 120.820312 Z M 300 66.109375 "/>
<path fill-rule="nonzero" fill="rgb(60.28742%, 41.452429%, 73.732167%)" fill-opacity="1" d="M 300 66.109375 L 345.105469 246.246094 L 370.746094 287.523438 L 415.992188 366.96875 L 327.597656 375.828125 L 259.640625 410.886719 L 106.535156 411.695312 L 69.652344 259.382812 L 149.648438 120.820312 Z M 300 66.109375 "/>
<path fill="none" stroke-width="3" stroke-linecap="butt" stroke-linejoin="miter" stroke="rgb(70%, 70%, 70%)" stroke-opacity="1" stroke-miterlimit="10" d="M 300 300 L 300 66.109375 "/>
<path fill="none" stroke-width="3" stroke-linecap="butt" stroke-linejoin="miter" stroke="rgb(70%, 70%, 70%)" stroke-opacity="1" stroke-miterlimit="10" d="M 300 300 L 345.105469 246.246094 "/>
<path fill="none" stroke-width="3" stroke-linecap="butt" stroke-linejoin="miter" stroke="rgb(70%, 70%, 70%)" stroke-opacity="1" stroke-miterlimit="10" d="M 300 300 L 370.746094 287.523438 "/>
<path fill="none" stroke-width="3" stroke-linecap="butt" stroke-linejoin="miter" stroke="rgb(70%, 70%, 70%)" stroke-opacity="1" stroke-miterlimit="10" d="M 300 300 L 415.992188 366.96875 "/>
<path fill="none" stroke-width="3" stroke-linecap="butt" stroke-linejoin="miter" stroke="rgb(70%, 70%, 70%)" stroke-opacity="1" stroke-miterlimit="10" d="M 300 300 L 327.597656 375.828125 "/>
<path fill="none" stroke-width="3" stroke-linecap="butt" stroke-linejoin="miter" stroke="rgb(70%, 70%, 70%)" stroke-opacity="1" stroke-miterlimit="10" d="M 300 300 L 259.640625 410.886719 "/>
<path fill="none" stroke-width="3" stroke-linecap="butt" stroke-linejoin="miter" stroke="rgb(70%, 70%, 70%)" stroke-opacity="1" stroke-miterlimit="10" d="M 300 300 L 106.535156 411.695312 "/>
<path fill="none" stroke-width="3" stroke-linecap="butt" stroke-linejoin="miter" stroke="rgb(70%, 70%, 70%)" stroke-opacity="1" stroke-miterlimit="10" d="M 300 300 L 69.652344 259.382812 "/>
<path fill="none" stroke-width="3" stroke-linecap="butt" stroke-linejoin="miter" stroke="rgb(70%, 70%, 70%)" stroke-opacity="1" stroke-miterlimit="10" d="M 300 300 L 149.648438 120.820312 "/>
</svg>
