<?xml version="1.0" encoding="UTF-8"?>
<svg xmlns="http://www.w3.org/2000/svg" xmlns:xlink="http://www.w3.org/1999/xlink" width="600" height="600" viewBox="0 0 600 600">
<rect x="-60" y="-60" width="720" height="720" fill="rgb(81.945412%, 59.661218%, 62.567353%)" fill-opacity="1"/>
<path fill="none" stroke-width="40.419949" stroke-linecap="butt" stroke-linejoin="miter" stroke="rgb(0%, 0%, 0%)" stroke-opacity="1" stroke-miterlimit="10" d="M 300 60.210938 L 346.238281 244.894531 L 376.480469 286.515625 L 496.546875 413.476562 L 326.035156 371.527344 L 221.847656 514.71875 L 92.335938 419.894531 L 85.800781 262.230469 L 231.28125 218.101562 Z M 300 60.210938 "/>
<path fill-rule="nonzero" fill="rgb(31.008549%, 58.686556%, 18.277494%)" fill-opacity="1" d="M 300 60.210938 L 346.238281 244.894531 L 376.480469 286.515625 L 496.546875 413.476562 L 326.035156 371.527344 L 221.847656 514.71875 L 92.335938 419.894531 L 85.800781 262.230469 L 231.28125 218.101562 Z M 300 60.210938 "/>
<path fill="none" stroke-width="3" stroke-linecap="butt" stroke-linejoin="miter" stroke="rgb(70%, 70%, 70%)" stroke-opacity="1" stroke-miterlimit="10" d="M 300 300 L 300 60.210938 "/>
<path fill="none" stroke-width="3" stroke-linecap="butt" stroke-linejoin="miter" stroke="rgb(70%, 70%, 70%)" stroke-opacity="1" stroke-miterlimit="10" d="M 300 300 L 346.238281 244.894531 "/>
<path fill="none" stroke-width="3" stroke-linecap="butt" stroke-linejoin="miter" stroke="rgb(70%, 70%, 70%)" stroke-opacity="1" stroke-miterlimit="10" d="M 300 300 L 376.480469 286.515625 "/>
<path fill="none" stroke-width="3" stroke-linecap="butt" stroke-linejoin="miter" stroke="rgb(70%, 70%, 70%)" stroke-opacity="1" stroke-miterlimit="10" d="M 300 300 L 496.546875 413.476562 "/>
<path fill="none" stroke-width="3" stroke-linecap="butt" stroke-linejoin="miter" stroke="rgb(70%, 70%, 70%)" stroke-opacity="1" stroke-miterlimit="10" d="M 300 300 L 326.035156 371.527344 "/>
<path fill="none" stroke-width="3" stroke-linecap="butt" stroke-linejoin="miter" stroke="rgb(70%, 70%, 70%)" stroke-opacity="1" stroke-miterlimit="10" d="M 300 300 L 221.847656 514.71875 "/>
<path fill="none" stroke-width="3" stroke-linecap="butt" stroke-linejoin="miter" stroke="rgb(70%, 70%, 70%)" stroke-opacity="1" stroke-miterlimit="10" d="M 300 300 L 92.335938 419.894531 "/>
<path fill="none" stroke-width="3" stroke-linecap="butt" stroke-linejoin="miter" stroke="rgb(70%, 70%, 70%)" stroke-opacity="1" stroke-miterlimit="10" d="M 300 300 L 85.800781 262.230469 "/>
<path fill="none" stroke-width="3" stroke-linecap="butt" stroke-linejoin="miter" stroke="rgb(70%, 70%, 70%)" stroke-opacity="1" stroke-miterlimit="10" d="M 300 300 L 231.28125 218.101562 "/>
</svg>
